<svg xmlns="http://www.w3.org/2000/svg" viewBox="0 0 45 17.75"><title>DnnLogo_Blue</title><path d="M25,10.83H23.68V8.19H25a1.32,1.32,0,1,1,0,2.64m0-4.91H21.34v7.19H25a3.6,3.6,0,1,0,0-7.19" fill="#00a4e4"/><path d="M36.72,9.48a3.6,3.6,0,0,0-3.6-3.57H29.53v7.2h2.34V8.25h1.25a1.26,1.26,0,0,1,1.26,1.26v3.6h2.34Z" fill="#00a4e4"/><path d="M45,9.48a3.6,3.6,0,0,0-3.6-3.57H37.81v7.2h2.33V8.25H41.4a1.26,1.26,0,0,1,1.26,1.26v3.6H45V9.48Z" fill="#00a4e4"/><path d="M11.2.31A8.91,8.91,0,0,0,8.87,0H0V11.2H5.92V5.91H11.2Zm.63.2h0v5.4h5.41A8.91,8.91,0,0,0,11.83.51m5.61,6H11.83V8.88a3,3,0,0,1-3,2.95H6.55v5.92H8.87a8.87,8.87,0,0,0,8.57-11.2M0,17.75H5.92V11.83H0Z" fill="#00a4e4"/></svg>