<svg xmlns="http://www.w3.org/2000/svg" viewBox="0 0 81 31.94"><title>DnnLogo_White</title><path d="M45,19.5H42.63V14.74H45a2.38,2.38,0,1,1,0,4.76m0-8.85H38.42v13H45a6.48,6.48,0,1,0,0-12.95" fill="#fff"/><path d="M66.1,17.06a6.48,6.48,0,0,0-6.48-6.41H53.15v13h4.21V14.86h2.26a2.26,2.26,0,0,1,2.27,2.26V23.6H66.1V17.06Z" fill="#fff"/><path d="M81,17.06a6.47,6.47,0,0,0-6.47-6.41H68.05v13h4.21V14.86h2.27a2.26,2.26,0,0,1,2.26,2.26V23.6H81V17.06Z" fill="#fff"/><path d="M20.15.55A16,16,0,0,0,16,0H0V20.16H10.65V10.65h9.5ZM21.3.91h0v9.74H31A16,16,0,0,0,21.3.91M31.39,11.79H21.3V16A5.33,5.33,0,0,1,16,21.3H11.79V31.94H16A16,16,0,0,0,31.39,11.79M0,31.94H10.65V21.3H0Z" fill="#fff"/></svg>